<svg width="289" height="128" viewBox="0 0 289 128" fill="none" xmlns="http://www.w3.org/2000/svg">
<rect x="36.6562" y="8.67139" width="208.025" height="6.93418" rx="3.46709" fill="#EEF4FF"/>
<rect x="36.6562" y="8.67139" width="160.257" height="6.93418" rx="3.46709" fill="#3F51B5"/>
<path d="M20.0994 16.3309C19.7871 16.3309 19.4501 16.3063 19.0885 16.2569C18.7269 16.2159 18.3777 16.1624 18.0407 16.0967C17.7038 16.0309 17.4161 15.9734 17.1778 15.9241L17.3257 14.6667C17.5476 14.6996 17.8106 14.7407 18.1147 14.79C18.4187 14.8311 18.731 14.864 19.0515 14.8886C19.3721 14.9133 19.6638 14.9256 19.9268 14.9256C20.3459 14.9256 20.6788 14.8188 20.9253 14.6051C21.1719 14.3832 21.2951 14.0627 21.2951 13.6435C21.2951 13.3559 21.2417 13.1299 21.1349 12.9655C21.0363 12.8012 20.8883 12.6861 20.6911 12.6204C20.5021 12.5464 20.2802 12.5094 20.0254 12.5094C19.8282 12.5094 19.6309 12.53 19.4337 12.571C19.2365 12.6039 19.0515 12.6491 18.879 12.7067C18.7064 12.756 18.5667 12.8094 18.4598 12.8669L17.3504 12.6943L17.5476 8.05921H22.6388V9.55083H18.879L18.7187 11.363C18.8338 11.3137 18.9776 11.2643 19.1502 11.215C19.3228 11.1575 19.5077 11.1082 19.7049 11.0671C19.9104 11.026 20.1076 11.0055 20.2966 11.0055C20.8637 11.0055 21.3445 11.0835 21.7389 11.2397C22.1334 11.3958 22.4334 11.6547 22.6388 12.0163C22.8525 12.3779 22.9593 12.871 22.9593 13.4956C22.9593 14.1449 22.8402 14.679 22.6018 15.0982C22.3717 15.5091 22.043 15.8173 21.6157 16.0227C21.1965 16.2282 20.6911 16.3309 20.0994 16.3309Z" fill="#11142D"/>
<path d="M5.25797 6.70755L3.94141 9.29731L0.995798 9.71394C0.467563 9.78827 0.255866 10.4201 0.638937 10.7819L2.77002 12.7966L2.26598 15.6426C2.17525 16.1571 2.73373 16.5424 3.20148 16.3018L5.83661 14.958L8.47174 16.3018C8.93949 16.5404 9.49796 16.1571 9.40724 15.6426L8.9032 12.7966L11.0343 10.7819C11.4174 10.4201 11.2057 9.78827 10.6774 9.71394L7.7318 9.29731L6.41525 6.70755C6.17936 6.24593 5.49588 6.24006 5.25797 6.70755Z" fill="#FF7F4D"/>
<path d="M269.657 16.3309C269.107 16.3309 268.593 16.2652 268.116 16.1337C267.648 16.0022 267.27 15.7721 266.982 15.4433C266.695 15.1146 266.551 14.6626 266.551 14.0873C266.551 13.6764 266.6 13.3477 266.699 13.1011C266.806 12.8546 266.953 12.645 267.142 12.4724C267.331 12.2998 267.557 12.1355 267.82 11.9793C267.426 11.7657 267.138 11.5191 266.958 11.2397C266.777 10.9603 266.686 10.5658 266.686 10.0563C266.686 9.55494 266.81 9.14813 267.056 8.83584C267.311 8.52355 267.66 8.29343 268.104 8.1455C268.556 7.99758 269.074 7.92361 269.657 7.92361C270.241 7.92361 270.759 7.99347 271.211 8.13318C271.671 8.27289 272.028 8.503 272.283 8.82351C272.546 9.13581 272.677 9.55083 272.677 10.0686C272.677 10.5946 272.587 10.9931 272.406 11.2643C272.225 11.5273 271.921 11.7698 271.494 11.9917C271.782 12.1232 272.02 12.2752 272.209 12.4478C272.406 12.6121 272.554 12.8176 272.653 13.0641C272.751 13.3107 272.801 13.6271 272.801 14.0134C272.801 14.6133 272.657 15.0817 272.369 15.4187C272.082 15.7556 271.699 15.994 271.223 16.1337C270.754 16.2652 270.233 16.3309 269.657 16.3309ZM269.657 14.9872C269.945 14.9872 270.196 14.9544 270.409 14.8886C270.631 14.8146 270.8 14.6955 270.915 14.5311C271.038 14.3585 271.1 14.1243 271.1 13.8284C271.1 13.5983 271.054 13.4093 270.964 13.2614C270.882 13.1052 270.763 12.9779 270.606 12.8792C270.459 12.7806 270.294 12.7025 270.113 12.645H269.189C268.901 12.7354 268.671 12.8792 268.498 13.0765C268.334 13.2655 268.252 13.5285 268.252 13.8654C268.252 14.1366 268.309 14.3544 268.425 14.5188C268.548 14.6831 268.716 14.8023 268.93 14.8763C269.144 14.9502 269.386 14.9872 269.657 14.9872ZM269.189 11.3999H270.113C270.385 11.2931 270.598 11.1534 270.754 10.9808C270.911 10.8082 270.989 10.5822 270.989 10.3028C270.989 9.93298 270.874 9.66589 270.643 9.50152C270.422 9.33716 270.097 9.25497 269.67 9.25497C269.25 9.25497 268.93 9.33716 268.708 9.50152C268.486 9.66589 268.375 9.92887 268.375 10.2905C268.375 10.5781 268.445 10.8082 268.585 10.9808C268.724 11.1534 268.926 11.2931 269.189 11.3999ZM276.618 16.3309C275.558 16.3309 274.781 15.9652 274.288 15.2338C273.795 14.5023 273.549 13.471 273.549 12.1396C273.549 11.3506 273.627 10.6891 273.783 10.1549C273.947 9.61247 274.173 9.18101 274.461 8.86049C274.757 8.53176 275.106 8.29343 275.509 8.1455C275.911 7.99758 276.355 7.92361 276.84 7.92361C277.095 7.92361 277.37 7.94005 277.666 7.97292C277.97 8.00579 278.266 8.04688 278.554 8.09619C278.841 8.13729 279.084 8.17838 279.281 8.21947L279.145 9.48919C278.973 9.47276 278.755 9.45221 278.492 9.42756C278.237 9.4029 277.97 9.38236 277.691 9.36592C277.411 9.34126 277.144 9.32894 276.889 9.32894C276.33 9.32894 275.911 9.50563 275.632 9.85902C275.352 10.2042 275.205 10.7014 275.188 11.3506C275.27 11.326 275.373 11.2972 275.496 11.2643C275.628 11.2233 275.768 11.1822 275.915 11.1411C276.072 11.0918 276.228 11.0548 276.384 11.0301C276.54 10.9972 276.688 10.9808 276.828 10.9808C277.74 10.9808 278.422 11.1945 278.874 11.6218C279.334 12.041 279.564 12.7025 279.564 13.6066C279.564 14.2147 279.445 14.7201 279.207 15.1228C278.969 15.5255 278.632 15.8296 278.196 16.0351C277.76 16.2323 277.234 16.3309 276.618 16.3309ZM276.618 14.9502C277.07 14.9502 277.407 14.8352 277.629 14.6051C277.859 14.3667 277.974 14.0339 277.974 13.6066C277.974 13.1792 277.859 12.8669 277.629 12.6697C277.399 12.4642 277.074 12.3615 276.655 12.3615C276.483 12.3615 276.302 12.3779 276.113 12.4108C275.924 12.4437 275.747 12.4889 275.583 12.5464C275.418 12.5957 275.283 12.645 275.176 12.6943C275.184 13.1299 275.233 13.5203 275.324 13.8654C275.414 14.2024 275.562 14.4695 275.768 14.6667C275.981 14.8557 276.265 14.9502 276.618 14.9502ZM282.778 16.6514L282.198 16.5035L284.516 7.70172L285.108 7.86197L282.778 16.6514ZM281.767 11.7574C281.249 11.7574 280.867 11.6054 280.62 11.3013C280.374 10.9972 280.251 10.5083 280.251 9.83436C280.251 9.16868 280.374 8.68791 280.62 8.39205C280.867 8.09619 281.249 7.94827 281.767 7.94827C282.12 7.94827 282.408 8.01401 282.63 8.1455C282.852 8.26878 283.016 8.47013 283.123 8.74955C283.23 9.02897 283.283 9.39057 283.283 9.83436C283.283 10.5083 283.16 10.9972 282.913 11.3013C282.667 11.6054 282.285 11.7574 281.767 11.7574ZM281.767 10.8575C281.882 10.8575 281.972 10.8288 282.038 10.7712C282.104 10.7055 282.149 10.5987 282.174 10.4507C282.207 10.2946 282.223 10.0891 282.223 9.83436C282.223 9.57959 282.207 9.38236 282.174 9.24265C282.149 9.09472 282.104 8.99199 282.038 8.93446C281.972 8.86871 281.882 8.83584 281.767 8.83584C281.652 8.83584 281.561 8.86871 281.496 8.93446C281.43 8.99199 281.385 9.09472 281.36 9.24265C281.335 9.38236 281.323 9.57959 281.323 9.83436C281.323 10.0891 281.335 10.2946 281.36 10.4507C281.385 10.5987 281.43 10.7055 281.496 10.7712C281.561 10.8288 281.652 10.8575 281.767 10.8575ZM285.564 16.3309C285.038 16.3309 284.651 16.1789 284.405 15.8748C284.158 15.5625 284.035 15.0735 284.035 14.4078C284.035 13.7339 284.158 13.2491 284.405 12.9532C284.651 12.6573 285.038 12.5094 285.564 12.5094C285.909 12.5094 286.192 12.5752 286.414 12.7067C286.636 12.8381 286.801 13.0436 286.907 13.323C287.022 13.6024 287.08 13.964 287.08 14.4078C287.08 15.0735 286.953 15.5625 286.698 15.8748C286.451 16.1789 286.073 16.3309 285.564 16.3309ZM285.564 15.431C285.671 15.431 285.757 15.4022 285.823 15.3447C285.897 15.279 285.946 15.1721 285.97 15.0242C285.995 14.8681 286.007 14.6626 286.007 14.4078C286.007 14.1449 285.995 13.9435 285.97 13.8038C285.946 13.6559 285.901 13.5572 285.835 13.5079C285.769 13.4504 285.679 13.4216 285.564 13.4216C285.44 13.4216 285.346 13.4504 285.28 13.5079C285.214 13.5572 285.169 13.6559 285.145 13.8038C285.12 13.9435 285.108 14.1449 285.108 14.4078C285.108 14.6626 285.12 14.8681 285.145 15.0242C285.177 15.1721 285.227 15.279 285.292 15.3447C285.358 15.4022 285.449 15.431 285.564 15.431Z" fill="#11142D"/>
<rect x="36.6562" y="34.8674" width="208.025" height="6.93418" rx="3.46709" fill="#EEF4FF"/>
<rect x="36.6562" y="34.8674" width="57.0143" height="6.93418" rx="3.46709" fill="#3F51B5"/>
<path d="M20.7158 42.3921V41.0361H17.0175V39.8033L18.8666 34.256H20.7651L18.7064 39.6184H20.7158L20.8144 37.5228L22.3923 37.4981V39.6184H23.1443V41.0361H22.3923V42.3921H20.7158Z" fill="#11142D"/>
<path d="M5.25797 32.9043L3.94141 35.4941L0.995798 35.9107C0.467563 35.9851 0.255866 36.6168 0.638937 36.9787L2.77002 38.9934L2.26598 41.8394C2.17525 42.3538 2.73373 42.7392 3.20148 42.4986L5.83661 41.1548L8.47174 42.4986C8.93949 42.7372 9.49796 42.3538 9.40724 41.8394L8.9032 38.9934L11.0343 36.9787C11.4174 36.6168 11.2057 35.9851 10.6774 35.9107L7.7318 35.4941L6.41525 32.9043C6.17936 32.4427 5.49588 32.4368 5.25797 32.9043Z" fill="#FF7F4D"/>
<path d="M269.768 42.5277C268.708 42.5277 267.931 42.162 267.438 41.4306C266.945 40.6991 266.699 39.6677 266.699 38.3364C266.699 37.5474 266.777 36.8858 266.933 36.3517C267.097 35.8092 267.323 35.3778 267.611 35.0573C267.907 34.7285 268.256 34.4902 268.659 34.3423C269.061 34.1944 269.505 34.1204 269.99 34.1204C270.245 34.1204 270.52 34.1368 270.816 34.1697C271.12 34.2026 271.416 34.2437 271.704 34.293C271.991 34.3341 272.234 34.3752 272.431 34.4162L272.295 35.686C272.123 35.6695 271.905 35.649 271.642 35.6243C271.387 35.5997 271.12 35.5791 270.841 35.5627C270.561 35.538 270.294 35.5257 270.039 35.5257C269.481 35.5257 269.061 35.7024 268.782 36.0558C268.503 36.401 268.355 36.8982 268.338 37.5474C268.42 37.5228 268.523 37.494 268.646 37.4611C268.778 37.42 268.918 37.3789 269.066 37.3378C269.222 37.2885 269.378 37.2516 269.534 37.2269C269.69 37.194 269.838 37.1776 269.978 37.1776C270.89 37.1776 271.572 37.3913 272.024 37.8186C272.484 38.2377 272.714 38.8993 272.714 39.8033C272.714 40.4115 272.595 40.9169 272.357 41.3196C272.119 41.7223 271.782 42.0264 271.346 42.2318C270.911 42.4291 270.385 42.5277 269.768 42.5277ZM269.768 41.147C270.22 41.147 270.557 41.032 270.779 40.8019C271.009 40.5635 271.124 40.2307 271.124 39.8033C271.124 39.376 271.009 39.0637 270.779 38.8664C270.549 38.661 270.224 38.5583 269.805 38.5583C269.633 38.5583 269.452 38.5747 269.263 38.6076C269.074 38.6404 268.897 38.6856 268.733 38.7432C268.568 38.7925 268.433 38.8418 268.326 38.8911C268.334 39.3267 268.383 39.717 268.474 40.0622C268.564 40.3992 268.712 40.6663 268.918 40.8635C269.131 41.0525 269.415 41.147 269.768 41.147ZM276.593 42.3921V36.0804L274.67 37.1899L274.103 35.9695L276.803 34.256H278.27V42.3921H276.593ZM282.778 42.8482L282.198 42.7003L284.516 33.8985L285.108 34.0588L282.778 42.8482ZM281.767 37.9542C281.249 37.9542 280.867 37.8022 280.62 37.4981C280.374 37.194 280.251 36.705 280.251 36.0311C280.251 35.3655 280.374 34.8847 280.62 34.5888C280.867 34.293 281.249 34.145 281.767 34.145C282.12 34.145 282.408 34.2108 282.63 34.3423C282.852 34.4656 283.016 34.6669 283.123 34.9463C283.23 35.2257 283.283 35.5874 283.283 36.0311C283.283 36.705 283.16 37.194 282.913 37.4981C282.667 37.8022 282.285 37.9542 281.767 37.9542ZM281.767 37.0543C281.882 37.0543 281.972 37.0256 282.038 36.968C282.104 36.9023 282.149 36.7954 282.174 36.6475C282.207 36.4914 282.223 36.2859 282.223 36.0311C282.223 35.7764 282.207 35.5791 282.174 35.4394C282.149 35.2915 282.104 35.1888 282.038 35.1312C281.972 35.0655 281.882 35.0326 281.767 35.0326C281.652 35.0326 281.561 35.0655 281.496 35.1312C281.43 35.1888 281.385 35.2915 281.36 35.4394C281.335 35.5791 281.323 35.7764 281.323 36.0311C281.323 36.2859 281.335 36.4914 281.36 36.6475C281.385 36.7954 281.43 36.9023 281.496 36.968C281.561 37.0256 281.652 37.0543 281.767 37.0543ZM285.564 42.5277C285.038 42.5277 284.651 42.3757 284.405 42.0716C284.158 41.7593 284.035 41.2703 284.035 40.6046C284.035 39.9307 284.158 39.4458 284.405 39.15C284.651 38.8541 285.038 38.7062 285.564 38.7062C285.909 38.7062 286.192 38.7719 286.414 38.9034C286.636 39.0349 286.801 39.2404 286.907 39.5198C287.022 39.7992 287.08 40.1608 287.08 40.6046C287.08 41.2703 286.953 41.7593 286.698 42.0716C286.451 42.3757 286.073 42.5277 285.564 42.5277ZM285.564 41.6278C285.671 41.6278 285.757 41.599 285.823 41.5415C285.897 41.4758 285.946 41.3689 285.97 41.221C285.995 41.0648 286.007 40.8594 286.007 40.6046C286.007 40.3416 285.995 40.1403 285.97 40.0006C285.946 39.8526 285.901 39.754 285.835 39.7047C285.769 39.6472 285.679 39.6184 285.564 39.6184C285.44 39.6184 285.346 39.6472 285.28 39.7047C285.214 39.754 285.169 39.8526 285.145 40.0006C285.12 40.1403 285.108 40.3416 285.108 40.6046C285.108 40.8594 285.12 41.0648 285.145 41.221C285.177 41.3689 285.227 41.4758 285.292 41.5415C285.358 41.599 285.449 41.6278 285.564 41.6278Z" fill="#11142D"/>
<rect x="36.6562" y="61.0627" width="208.025" height="6.93418" rx="3.46709" fill="#EEF4FF"/>
<rect x="36.6562" y="61.0627" width="24.6549" height="6.93418" rx="3.46709" fill="#3F51B5"/>
<path d="M19.9145 68.723C19.6104 68.723 19.2899 68.7066 18.9529 68.6737C18.6242 68.6408 18.3078 68.5997 18.0037 68.5504C17.7079 68.4929 17.4613 68.4436 17.2641 68.4025L17.338 67.0835C17.5353 67.1081 17.7695 67.1369 18.0407 67.1697C18.3201 67.2026 18.6037 67.2314 18.8913 67.256C19.1872 67.2725 19.4584 67.2807 19.7049 67.2807C20.1733 67.2807 20.5226 67.1944 20.7527 67.0218C20.9828 66.8492 21.0979 66.5698 21.0979 66.1836C21.0979 65.9206 21.0445 65.7151 20.9376 65.5672C20.839 65.411 20.6911 65.296 20.4939 65.222C20.3048 65.1481 20.0829 65.107 19.8282 65.0987H18.1516V63.7427H19.7912C19.9802 63.7427 20.161 63.7016 20.3336 63.6195C20.5144 63.5373 20.6582 63.4181 20.7651 63.262C20.8801 63.1058 20.9376 62.9168 20.9376 62.6949C20.9376 62.3497 20.8308 62.1073 20.6171 61.9676C20.4117 61.8196 20.0747 61.7457 19.6063 61.7457C19.3597 61.7457 19.1009 61.758 18.8297 61.7827C18.5585 61.8073 18.2996 61.8361 18.053 61.869C17.8065 61.8936 17.601 61.9224 17.4367 61.9552L17.3627 60.6609C17.5435 60.6116 17.7654 60.5622 18.0284 60.5129C18.2914 60.4554 18.5708 60.4102 18.8666 60.3773C19.1625 60.3362 19.4419 60.3157 19.7049 60.3157C20.4035 60.3157 20.9664 60.3897 21.3938 60.5376C21.8293 60.6773 22.1457 60.9115 22.343 61.2403C22.5402 61.5608 22.6388 61.984 22.6388 62.51C22.6388 62.7976 22.6018 63.0401 22.5279 63.2373C22.4621 63.4345 22.3717 63.603 22.2567 63.7427C22.1498 63.8824 22.0389 63.9975 21.9238 64.0879C21.8088 64.1701 21.7019 64.244 21.6033 64.3098C21.8499 64.4248 22.0636 64.5522 22.2444 64.6919C22.4252 64.8316 22.5649 65.0166 22.6635 65.2467C22.7621 65.4768 22.8114 65.785 22.8114 66.1712C22.8114 66.7876 22.7046 67.2848 22.4909 67.6628C22.2772 68.0327 21.9567 68.3039 21.5294 68.4765C21.102 68.6408 20.5637 68.723 19.9145 68.723Z" fill="#11142D"/>
<path d="M5.25797 59.0996L3.94141 61.6894L0.995798 62.106C0.467563 62.1804 0.255866 62.8122 0.638937 63.174L2.77002 65.1887L2.26598 68.0347C2.17525 68.5491 2.73373 68.9345 3.20148 68.6939L5.83661 67.3501L8.47174 68.6939C8.93949 68.9325 9.49796 68.5491 9.40724 68.0347L8.9032 65.1887L11.0343 63.174C11.4174 62.8122 11.2057 62.1804 10.6774 62.106L7.7318 61.6894L6.41525 59.0996C6.17936 58.638 5.49588 58.6322 5.25797 59.0996Z" fill="#FF7F4D"/>
<path d="M269.744 68.5874V62.2758L267.82 63.3852L267.253 62.1648L269.953 60.4513H271.42V68.5874H269.744ZM273.832 68.5874V67.256L275.694 65.3453C276.047 64.9837 276.351 64.6673 276.606 64.3961C276.861 64.1167 277.054 63.8537 277.185 63.6071C277.325 63.3606 277.395 63.0976 277.395 62.8182C277.395 62.4073 277.28 62.1319 277.05 61.9922C276.819 61.8443 276.45 61.7703 275.94 61.7703C275.735 61.7703 275.509 61.7827 275.262 61.8073C275.016 61.832 274.777 61.8607 274.547 61.8936C274.325 61.9265 274.132 61.9594 273.968 61.9922L273.881 60.6855C274.062 60.6362 274.284 60.5828 274.547 60.5253C274.818 60.4677 275.11 60.4184 275.422 60.3773C275.743 60.328 276.055 60.3034 276.359 60.3034C277.247 60.3034 277.925 60.4924 278.393 60.8704C278.862 61.2403 279.096 61.8155 279.096 62.5963C279.096 63.0236 279.034 63.4017 278.911 63.7304C278.796 64.0591 278.611 64.3755 278.356 64.6796C278.11 64.9755 277.781 65.3001 277.37 65.6535L275.743 67.2067H279.207V68.5874H273.832ZM282.778 69.0435L282.198 68.8956L284.516 60.0938L285.108 60.2541L282.778 69.0435ZM281.767 64.1495C281.249 64.1495 280.867 63.9975 280.62 63.6934C280.374 63.3893 280.251 62.9004 280.251 62.2265C280.251 61.5608 280.374 61.08 280.62 60.7841C280.867 60.4883 281.249 60.3404 281.767 60.3404C282.12 60.3404 282.408 60.4061 282.63 60.5376C282.852 60.6609 283.016 60.8622 283.123 61.1416C283.23 61.4211 283.283 61.7827 283.283 62.2265C283.283 62.9004 283.16 63.3893 282.913 63.6934C282.667 63.9975 282.285 64.1495 281.767 64.1495ZM281.767 63.2496C281.882 63.2496 281.972 63.2209 282.038 63.1633C282.104 63.0976 282.149 62.9908 282.174 62.8428C282.207 62.6867 282.223 62.4812 282.223 62.2265C282.223 61.9717 282.207 61.7744 282.174 61.6347C282.149 61.4868 282.104 61.3841 282.038 61.3265C281.972 61.2608 281.882 61.2279 281.767 61.2279C281.652 61.2279 281.561 61.2608 281.496 61.3265C281.43 61.3841 281.385 61.4868 281.36 61.6347C281.335 61.7744 281.323 61.9717 281.323 62.2265C281.323 62.4812 281.335 62.6867 281.36 62.8428C281.385 62.9908 281.43 63.0976 281.496 63.1633C281.561 63.2209 281.652 63.2496 281.767 63.2496ZM285.564 68.723C285.038 68.723 284.651 68.571 284.405 68.2669C284.158 67.9546 284.035 67.4656 284.035 66.7999C284.035 66.126 284.158 65.6411 284.405 65.3453C284.651 65.0494 285.038 64.9015 285.564 64.9015C285.909 64.9015 286.192 64.9672 286.414 65.0987C286.636 65.2302 286.801 65.4357 286.907 65.7151C287.022 65.9945 287.08 66.3561 287.08 66.7999C287.08 67.4656 286.953 67.9546 286.698 68.2669C286.451 68.571 286.073 68.723 285.564 68.723ZM285.564 67.8231C285.671 67.8231 285.757 67.7943 285.823 67.7368C285.897 67.6711 285.946 67.5642 285.97 67.4163C285.995 67.2601 286.007 67.0547 286.007 66.7999C286.007 66.5369 285.995 66.3356 285.97 66.1959C285.946 66.048 285.901 65.9493 285.835 65.9C285.769 65.8425 285.679 65.8137 285.564 65.8137C285.44 65.8137 285.346 65.8425 285.28 65.9C285.214 65.9493 285.169 66.048 285.145 66.1959C285.12 66.3356 285.108 66.5369 285.108 66.7999C285.108 67.0547 285.12 67.2601 285.145 67.4163C285.177 67.5642 285.227 67.6711 285.292 67.7368C285.358 67.7943 285.449 67.8231 285.564 67.8231Z" fill="#11142D"/>
<rect x="36.6562" y="87.2585" width="208.025" height="6.93418" rx="3.46709" fill="#EEF4FF"/>
<rect x="36.6562" y="87.2585" width="7.70464" height="6.93418" rx="3.46709" fill="#3F51B5"/>
<path d="M17.3504 94.783V93.4516L19.2118 91.5408C19.5652 91.1792 19.8693 90.8628 20.124 90.5916C20.3788 90.3122 20.5719 90.0492 20.7034 89.8027C20.8431 89.5561 20.913 89.2931 20.913 89.0137C20.913 88.6028 20.7979 88.3275 20.5678 88.1878C20.3377 88.0399 19.9679 87.9659 19.4584 87.9659C19.2529 87.9659 19.0269 87.9782 18.7803 88.0029C18.5338 88.0275 18.2955 88.0563 18.0654 88.0892C17.8435 88.122 17.6503 88.1549 17.486 88.1878L17.3997 86.8811C17.5805 86.8318 17.8024 86.7784 18.0654 86.7208C18.3366 86.6633 18.6283 86.614 18.9406 86.5729C19.2611 86.5236 19.5734 86.4989 19.8775 86.4989C20.7651 86.4989 21.4431 86.6879 21.9115 87.066C22.38 87.4358 22.6142 88.0111 22.6142 88.7918C22.6142 89.2192 22.5525 89.5972 22.4293 89.926C22.3142 90.2547 22.1293 90.5711 21.8745 90.8752C21.628 91.171 21.2993 91.4956 20.8883 91.849L19.2611 93.4023H22.7251V94.783H17.3504Z" fill="#11142D"/>
<path d="M5.25797 85.2952L3.94141 87.885L0.995798 88.3016C0.467563 88.3759 0.255866 89.0077 0.638937 89.3696L2.77002 91.3843L2.26598 94.2303C2.17525 94.7447 2.73373 95.13 3.20148 94.8894L5.83661 93.5457L8.47174 94.8894C8.93949 95.1281 9.49796 94.7447 9.40724 94.2303L8.9032 91.3843L11.0343 89.3696C11.4174 89.0077 11.2057 88.3759 10.6774 88.3016L7.7318 87.885L6.41525 85.2952C6.17936 84.8336 5.49588 84.8277 5.25797 85.2952Z" fill="#FF7F4D"/>
<path d="M269.73 94.9186C269.418 94.9186 269.081 94.8939 268.719 94.8446C268.358 94.8035 268.009 94.7501 267.672 94.6843C267.335 94.6186 267.047 94.5611 266.809 94.5118L266.957 93.2544C267.178 93.2872 267.441 93.3283 267.746 93.3776C268.05 93.4187 268.362 93.4516 268.682 93.4763C269.003 93.5009 269.295 93.5132 269.558 93.5132C269.977 93.5132 270.31 93.4064 270.556 93.1927C270.803 92.9708 270.926 92.6503 270.926 92.2312C270.926 91.9435 270.873 91.7175 270.766 91.5532C270.667 91.3888 270.519 91.2738 270.322 91.208C270.133 91.134 269.911 91.0971 269.656 91.0971C269.459 91.0971 269.262 91.1176 269.065 91.1587C268.867 91.1916 268.682 91.2368 268.51 91.2943C268.337 91.3436 268.198 91.397 268.091 91.4546L266.981 91.282L267.178 86.6469H272.27V88.1385H268.51L268.35 89.9506C268.465 89.9013 268.608 89.852 268.781 89.8027C268.954 89.7452 269.139 89.6958 269.336 89.6548C269.541 89.6137 269.738 89.5931 269.927 89.5931C270.495 89.5931 270.975 89.6712 271.37 89.8273C271.764 89.9835 272.064 90.2424 272.27 90.604C272.483 90.9656 272.59 91.4587 272.59 92.0833C272.59 92.7325 272.471 93.2667 272.233 93.6858C272.003 94.0967 271.674 94.4049 271.247 94.6104C270.827 94.8158 270.322 94.9186 269.73 94.9186ZM275.927 95.2391L275.347 95.0911L277.665 86.2894L278.257 86.4496L275.927 95.2391ZM274.916 90.3451C274.398 90.3451 274.016 90.193 273.769 89.889C273.523 89.5849 273.4 89.0959 273.4 88.422C273.4 87.7563 273.523 87.2756 273.769 86.9797C274.016 86.6838 274.398 86.5359 274.916 86.5359C275.269 86.5359 275.557 86.6017 275.779 86.7332C276.001 86.8564 276.165 87.0578 276.272 87.3372C276.379 87.6166 276.432 87.9782 276.432 88.422C276.432 89.0959 276.309 89.5849 276.062 89.889C275.816 90.193 275.434 90.3451 274.916 90.3451ZM274.916 89.4452C275.031 89.4452 275.121 89.4164 275.187 89.3589C275.253 89.2931 275.298 89.1863 275.323 89.0384C275.356 88.8822 275.372 88.6768 275.372 88.422C275.372 88.1672 275.356 87.97 275.323 87.8303C275.298 87.6824 275.253 87.5796 275.187 87.5221C275.121 87.4564 275.031 87.4235 274.916 87.4235C274.801 87.4235 274.71 87.4564 274.645 87.5221C274.579 87.5796 274.534 87.6824 274.509 87.8303C274.484 87.97 274.472 88.1672 274.472 88.422C274.472 88.6768 274.484 88.8822 274.509 89.0384C274.534 89.1863 274.579 89.2931 274.645 89.3589C274.71 89.4164 274.801 89.4452 274.916 89.4452ZM278.713 94.9186C278.187 94.9186 277.801 94.7665 277.554 94.4624C277.307 94.1502 277.184 93.6612 277.184 92.9955C277.184 92.3216 277.307 91.8367 277.554 91.5408C277.801 91.245 278.187 91.0971 278.713 91.0971C279.058 91.0971 279.341 91.1628 279.563 91.2943C279.785 91.4258 279.95 91.6312 280.056 91.9107C280.172 92.1901 280.229 92.5517 280.229 92.9955C280.229 93.6612 280.102 94.1502 279.847 94.4624C279.6 94.7665 279.222 94.9186 278.713 94.9186ZM278.713 94.0187C278.82 94.0187 278.906 93.9899 278.972 93.9324C279.046 93.8666 279.095 93.7598 279.12 93.6119C279.144 93.4557 279.157 93.2502 279.157 92.9955C279.157 92.7325 279.144 92.5311 279.12 92.3914C279.095 92.2435 279.05 92.1449 278.984 92.0956C278.918 92.0381 278.828 92.0093 278.713 92.0093C278.59 92.0093 278.495 92.0381 278.429 92.0956C278.364 92.1449 278.318 92.2435 278.294 92.3914C278.269 92.5311 278.257 92.7325 278.257 92.9955C278.257 93.2502 278.269 93.4557 278.294 93.6119C278.327 93.7598 278.376 93.8666 278.442 93.9324C278.507 93.9899 278.598 94.0187 278.713 94.0187Z" fill="#11142D"/>
<rect x="36.6562" y="113.455" width="208.025" height="6.93418" rx="3.46709" fill="#EEF4FF"/>
<rect x="36.6562" y="113.455" width="13.0979" height="6.93418" rx="3.46709" fill="#3F51B5"/>
<path d="M20.1117 120.979V114.667L18.1886 115.777L17.6216 114.556L20.3213 112.843H21.7882V120.979H20.1117Z" fill="#11142D"/>
<path d="M5.25797 111.491L3.94141 114.081L0.995798 114.498C0.467563 114.572 0.255866 115.204 0.638937 115.566L2.77002 117.581L2.26598 120.427C2.17525 120.941 2.73373 121.326 3.20148 121.086L5.83661 119.742L8.47174 121.086C8.93949 121.324 9.49796 120.941 9.40724 120.427L8.9032 117.581L11.0343 115.566C11.4174 115.204 11.2057 114.572 10.6774 114.498L7.7318 114.081L6.41525 111.491C6.17936 111.03 5.49588 111.024 5.25797 111.491Z" fill="#FF7F4D"/>
<path d="M269.657 121.115C269.107 121.115 268.593 121.049 268.116 120.917C267.648 120.786 267.27 120.556 266.982 120.227C266.695 119.898 266.551 119.446 266.551 118.871C266.551 118.46 266.6 118.131 266.699 117.885C266.806 117.638 266.953 117.429 267.142 117.256C267.331 117.084 267.557 116.919 267.82 116.763C267.426 116.549 267.138 116.303 266.958 116.023C266.777 115.744 266.686 115.349 266.686 114.84C266.686 114.339 266.81 113.932 267.056 113.62C267.311 113.307 267.66 113.077 268.104 112.929C268.556 112.781 269.074 112.707 269.657 112.707C270.241 112.707 270.759 112.777 271.211 112.917C271.671 113.057 272.028 113.287 272.283 113.607C272.546 113.919 272.677 114.335 272.677 114.852C272.677 115.378 272.587 115.777 272.406 116.048C272.225 116.311 271.921 116.553 271.494 116.775C271.782 116.907 272.02 117.059 272.209 117.231C272.406 117.396 272.554 117.601 272.653 117.848C272.751 118.094 272.801 118.411 272.801 118.797C272.801 119.397 272.657 119.865 272.369 120.202C272.082 120.539 271.699 120.778 271.223 120.917C270.754 121.049 270.233 121.115 269.657 121.115ZM269.657 119.771C269.945 119.771 270.196 119.738 270.409 119.672C270.631 119.598 270.8 119.479 270.915 119.315C271.038 119.142 271.1 118.908 271.1 118.612C271.1 118.382 271.054 118.193 270.964 118.045C270.882 117.889 270.763 117.762 270.606 117.663C270.459 117.564 270.294 117.486 270.113 117.429H269.189C268.901 117.519 268.671 117.663 268.498 117.86C268.334 118.049 268.252 118.312 268.252 118.649C268.252 118.92 268.309 119.138 268.425 119.302C268.548 119.467 268.716 119.586 268.93 119.66C269.144 119.734 269.386 119.771 269.657 119.771ZM269.189 116.184H270.113C270.385 116.077 270.598 115.937 270.754 115.765C270.911 115.592 270.989 115.366 270.989 115.086C270.989 114.717 270.874 114.45 270.643 114.285C270.422 114.121 270.097 114.039 269.67 114.039C269.25 114.039 268.93 114.121 268.708 114.285C268.486 114.45 268.375 114.713 268.375 115.074C268.375 115.362 268.445 115.592 268.585 115.765C268.724 115.937 268.926 116.077 269.189 116.184ZM275.928 121.435L275.348 121.287L277.666 112.485L278.258 112.646L275.928 121.435ZM274.917 116.541C274.399 116.541 274.017 116.389 273.77 116.085C273.524 115.781 273.401 115.292 273.401 114.618C273.401 113.952 273.524 113.472 273.77 113.176C274.017 112.88 274.399 112.732 274.917 112.732C275.27 112.732 275.558 112.798 275.78 112.929C276.002 113.052 276.166 113.254 276.273 113.533C276.38 113.813 276.433 114.174 276.433 114.618C276.433 115.292 276.31 115.781 276.063 116.085C275.817 116.389 275.435 116.541 274.917 116.541ZM274.917 115.641C275.032 115.641 275.122 115.612 275.188 115.555C275.254 115.489 275.299 115.382 275.324 115.234C275.357 115.078 275.373 114.873 275.373 114.618C275.373 114.363 275.357 114.166 275.324 114.026C275.299 113.878 275.254 113.776 275.188 113.718C275.122 113.652 275.032 113.62 274.917 113.62C274.802 113.62 274.711 113.652 274.646 113.718C274.58 113.776 274.535 113.878 274.51 114.026C274.485 114.166 274.473 114.363 274.473 114.618C274.473 114.873 274.485 115.078 274.51 115.234C274.535 115.382 274.58 115.489 274.646 115.555C274.711 115.612 274.802 115.641 274.917 115.641ZM278.714 121.115C278.188 121.115 277.802 120.963 277.555 120.658C277.308 120.346 277.185 119.857 277.185 119.192C277.185 118.518 277.308 118.033 277.555 117.737C277.802 117.441 278.188 117.293 278.714 117.293C279.059 117.293 279.342 117.359 279.564 117.49C279.786 117.622 279.951 117.827 280.057 118.107C280.173 118.386 280.23 118.748 280.23 119.192C280.23 119.857 280.103 120.346 279.848 120.658C279.601 120.963 279.223 121.115 278.714 121.115ZM278.714 120.215C278.821 120.215 278.907 120.186 278.973 120.128C279.047 120.063 279.096 119.956 279.121 119.808C279.145 119.652 279.158 119.446 279.158 119.192C279.158 118.929 279.145 118.727 279.121 118.587C279.096 118.44 279.051 118.341 278.985 118.292C278.919 118.234 278.829 118.205 278.714 118.205C278.59 118.205 278.496 118.234 278.43 118.292C278.364 118.341 278.319 118.44 278.295 118.587C278.27 118.727 278.258 118.929 278.258 119.192C278.258 119.446 278.27 119.652 278.295 119.808C278.328 119.956 278.377 120.063 278.443 120.128C278.508 120.186 278.599 120.215 278.714 120.215Z" fill="#11142D"/>
</svg>
